<svg width="59" height="59" viewBox="0 0 59 59" fill="none" xmlns="http://www.w3.org/2000/svg">
<path fill-rule="evenodd" clip-rule="evenodd" d="M29.5 0C13.208 0 0 13.208 0 29.5C0 45.792 13.208 59 29.5 59C45.792 59 59 45.792 59 29.5C59 13.208 45.792 0 29.5 0ZM39.4415 23.3506C39.93 22.8448 40.2003 22.1674 40.1942 21.4642C40.1881 20.761 39.9061 20.0884 39.4088 19.5912C38.9116 19.0939 38.239 18.8119 37.5358 18.8058C36.8326 18.7997 36.1552 19.07 35.6494 19.5585L29.5 25.7079L23.3506 19.5585C23.1032 19.3024 22.8073 19.0981 22.4801 18.9575C22.1529 18.8169 21.801 18.743 21.4449 18.7399C21.0888 18.7368 20.7357 18.8046 20.4061 18.9395C20.0765 19.0743 19.7771 19.2735 19.5253 19.5253C19.2735 19.7771 19.0743 20.0765 18.9395 20.4061C18.8046 20.7357 18.7368 21.0888 18.7399 21.4449C18.743 21.801 18.8169 22.1529 18.9575 22.4801C19.0981 22.8073 19.3024 23.1032 19.5585 23.3506L25.7079 29.5L19.5585 35.6494C19.3024 35.8968 19.0981 36.1927 18.9575 36.5199C18.8169 36.8471 18.743 37.199 18.7399 37.5551C18.7368 37.9112 18.8046 38.2643 18.9395 38.5939C19.0743 38.9235 19.2735 39.2229 19.5253 39.4747C19.7771 39.7265 20.0765 39.9257 20.4061 40.0605C20.7357 40.1954 21.0888 40.2632 21.4449 40.2601C21.801 40.257 22.1529 40.1831 22.4801 40.0425C22.8073 39.9019 23.1032 39.6976 23.3506 39.4415L29.5 33.2921L35.6494 39.4415C36.1552 39.93 36.8326 40.2003 37.5358 40.1942C38.239 40.1881 38.9116 39.9061 39.4088 39.4088C39.9061 38.9116 40.1881 38.239 40.1942 37.5358C40.2003 36.8326 39.93 36.1552 39.4415 35.6494L33.2921 29.5L39.4415 23.3506Z" fill="#F03839"/>
</svg>
